<svg xmlns="http://www.w3.org/2000/svg" width="46" height="42" fill="none"><path d="M33.781.695c-2.496 0-4.784.791-6.802 2.351-1.933 1.496-3.221 3.4-3.979 4.786-.758-1.385-2.046-3.29-3.98-4.786-2.017-1.56-4.305-2.35-6.801-2.35C5.253.695 0 6.392 0 13.947 0 22.11 6.553 27.695 16.475 36.15a571.533 571.533 0 015.579 4.798 1.435 1.435 0 001.892 0c1.985-1.735 3.895-3.363 5.58-4.8C39.447 27.697 46 22.112 46 13.95 46 6.392 40.747.694 33.781.694z" fill="#6ebbd3"/><path d="M22.472 41.148c-.24-.096-10.604-9.012-12.647-10.88C2.913 23.954.292 19.706.09 14.498-.169 7.743 3.785 2.263 9.841.982c1.13-.239 3.146-.277 4.25-.081 1.522.271 3.16.957 4.446 1.864 1.366.963 3.122 2.894 4.008 4.41.21.358.41.651.445.651.034 0 .289-.366.565-.815 3.243-5.268 8.633-7.436 14.027-5.644 3.569 1.186 6.39 4.127 7.65 7.977.525 1.604.709 3.02.65 5.005-.057 1.883-.18 2.612-.712 4.213-.627 1.89-1.82 3.95-3.512 6.064-1.035 1.294-3.806 4.128-5.827 5.959-1.69 1.53-11.743 10.196-12.148 10.47-.254.172-.892.221-1.211.093z" fill="#6ebbd3"/></svg>